# xmcd
#
# Track frame offsets: 
#        150
#        20672
#        42925
#        63250
#        82645
#        100507
#        124260
#        147137
#        165915
#        186577
#        206650
#        225337
#        243322
#        260680
#        281980
#        302082
#        325822
#
# Disc length: 4606 seconds
#
# Revision: 4
# Processed by: cddbd v1.5.2PL0 Copyright (c) Steve Scherf et al.
# Submitted via: ExactAudioCopy v0.95a3
#
DISCID=e511fc11
DTITLE=Lisa Stansfield - Biography [CD 1)
DYEAR=2003
DGENRE=Pop
TTITLE0=Change
TTITLE1=Someday (I'm Coming Back)
TTITLE2=This Is The Right Time
TTITLE3=The Real Thing
TTITLE4=People Hold On (feat. Coldcut)
TTITLE5=In All The Right Places
TTITLE6=So Natural
TTITLE7=Time To Make You Mine
TTITLE8=Live Together
TTITLE9=Little Bit Of Heaven
TTITLE10=Set Your Loving Free
TTITLE11=Let's Just Call It Love
TTITLE12=Never, Never Gonna Give You Up
TTITLE13=These Are The Days Of Our Lives (with Queen and George Michael)
TTITLE14=Down In The Depths
TTITLE15=All Woman
TTITLE16=All Around The World
EXTD=YEAR: 2003
EXTT0=
EXTT1=
EXTT2=
EXTT3=
EXTT4=
EXTT5=
EXTT6=
EXTT7=
EXTT8=
EXTT9=
EXTT10=
EXTT11=
EXTT12=
EXTT13=
EXTT14=
EXTT15=
EXTT16=
PLAYORDER=
